<?xml version="1.0" standalone="no"?>
<!DOCTYPE svg PUBLIC "-//W3C//DTD SVG 20010904//EN"
 "http://www.w3.org/TR/2001/REC-SVG-20010904/DTD/svg10.dtd">
<svg version="1.0" xmlns="http://www.w3.org/2000/svg"
 width="400.000000pt" height="400.000000pt" viewBox="0 0 400.000000 400.000000"
 preserveAspectRatio="xMidYMid meet">
<metadata>
Created by potrace 1.11, written by Peter Selinger 2001-2013
</metadata>
<g transform="translate(0.000000,400.000000) scale(0.100000,-0.100000)"
fill="#000000" stroke="none">
<path d="M0 2000 l0 -2000 2000 0 2000 0 0 2000 0 2000 -2000 0 -2000 0 0
-2000z m1515 760 c4 -6 15 -6 32 1 25 9 25 8 20 -21 -4 -17 -2 -30 3 -30 6 0
10 9 10 19 0 11 5 23 10 26 6 3 10 -1 10 -9 0 -18 16 -22 22 -5 5 14 82 -5
118 -29 14 -9 43 -24 65 -33 68 -26 127 -69 138 -100 8 -19 17 -27 26 -24 7 3
20 0 27 -6 12 -9 12 -15 2 -27 -11 -13 -10 -15 3 -10 11 4 20 -1 28 -18 6 -13
15 -24 21 -24 12 0 40 -25 40 -35 0 -4 9 -20 20 -36 18 -24 19 -31 8 -49 -13
-21 -118 -81 -148 -85 -8 -1 -41 -14 -73 -28 -32 -15 -68 -27 -81 -27 -24 0
-96 60 -96 79 0 6 -9 11 -20 11 -11 0 -20 5 -20 11 0 16 -145 79 -190 82 -22
1 -42 8 -45 16 -3 9 -9 10 -18 4 -18 -14 -96 -35 -106 -28 -5 3 -15 -1 -23 -8
-7 -7 -27 -19 -44 -26 -17 -7 -48 -30 -70 -52 -21 -21 -43 -39 -50 -39 -6 0
-19 -15 -27 -32 -56 -121 -73 -166 -68 -183 2 -5 3 -35 3 -65 -1 -69 58 -197
116 -256 42 -41 120 -85 188 -104 41 -12 183 -8 232 6 19 5 22 3 22 -20 0 -14
4 -26 9 -26 14 0 22 43 9 51 -17 11 1 29 28 29 15 0 24 6 24 15 0 8 4 15 8 15
5 0 35 25 67 55 32 30 61 55 66 55 18 0 63 -22 74 -36 6 -9 26 -17 45 -19 40
-4 106 -30 115 -45 3 -5 17 -10 30 -10 37 0 48 -31 30 -82 -8 -23 -19 -44 -25
-46 -5 -2 -10 -12 -10 -22 0 -10 -8 -22 -17 -25 -10 -4 -36 -28 -58 -55 -22
-26 -57 -58 -78 -71 -21 -13 -46 -31 -56 -39 -17 -14 -59 -34 -157 -75 -85
-36 -166 -48 -293 -42 -69 3 -146 12 -171 20 -60 20 -204 79 -210 88 -3 3 -20
14 -38 23 -49 25 -174 155 -223 231 -30 47 -36 58 -55 98 -17 33 -17 39 -4 47
15 9 13 11 -12 14 -19 2 -38 106 -45 252 -4 93 -2 133 6 138 6 4 11 18 11 31
0 13 5 27 11 30 6 4 8 13 5 20 -2 7 2 22 10 34 8 11 13 21 9 21 -10 0 24 69
68 137 61 93 225 248 243 230 3 -3 17 6 31 19 14 13 28 22 31 19 3 -3 10 -1
16 4 16 13 166 62 205 67 19 2 37 7 40 9 9 9 170 5 176 -5z m1131 -31 c20 -23
19 38 13 -809 -1 -137 3 -235 9 -251 7 -19 20 -28 44 -33 18 -3 159 -6 314 -5
155 0 293 -3 308 -7 34 -8 37 -22 33 -187 -4 -151 -9 -165 -64 -174 -25 -4
-565 -4 -883 0 -122 2 -125 2 -137 27 -15 30 -17 166 -3 175 8 5 7 11 -1 21
-9 11 -8 15 5 20 16 6 16 8 0 25 -12 13 -14 26 -9 46 5 15 8 51 7 80 0 40 3
50 14 46 8 -3 14 1 14 10 0 9 -8 17 -17 20 -15 3 -14 6 7 14 l25 10 -23 7
c-27 9 -29 36 -3 36 11 0 23 5 26 10 3 6 -3 10 -14 10 -32 0 -30 -33 -36 539
-1 178 1 335 4 350 9 33 23 35 207 39 132 2 142 1 160 -19z"/>
<path d="M1500 2699 c0 -5 5 -7 10 -4 6 3 10 8 10 11 0 2 -4 4 -10 4 -5 0 -10
-5 -10 -11z"/>
<path d="M1686 2651 c-4 -7 -5 -15 -2 -18 9 -9 19 4 14 18 -4 11 -6 11 -12 0z"/>
<path d="M1820 2640 c-13 -8 -12 -10 3 -10 9 0 17 5 17 10 0 12 -1 12 -20 0z"/>
<path d="M1525 2630 c3 -5 11 -10 16 -10 6 0 7 5 4 10 -3 6 -11 10 -16 10 -6
0 -7 -4 -4 -10z"/>
<path d="M1630 2614 c0 -8 5 -12 10 -9 6 3 10 10 10 16 0 5 -4 9 -10 9 -5 0
-10 -7 -10 -16z"/>
<path d="M1387 2613 c-10 -10 -8 -45 2 -39 11 7 21 46 12 46 -4 0 -11 -3 -14
-7z"/>
<path d="M1470 2610 c0 -5 7 -10 15 -10 8 0 15 5 15 10 0 6 -7 10 -15 10 -8 0
-15 -4 -15 -10z"/>
<path d="M1190 2600 c0 -5 5 -10 10 -10 6 0 10 5 10 10 0 6 -4 10 -10 10 -5 0
-10 -4 -10 -10z"/>
<path d="M1310 2587 c0 -8 8 -21 19 -31 16 -14 20 -15 30 -2 8 10 9 16 1 21
-5 3 -10 1 -10 -4 0 -6 -4 -11 -10 -11 -5 0 -10 9 -10 20 0 11 -4 20 -10 20
-5 0 -10 -6 -10 -13z"/>
<path d="M1145 2570 c3 -5 10 -10 16 -10 5 0 9 5 9 10 0 6 -7 10 -16 10 -8 0
-12 -4 -9 -10z"/>
<path d="M1500 2560 c0 -5 9 -10 20 -10 11 0 20 5 20 10 0 6 -9 10 -20 10 -11
0 -20 -4 -20 -10z"/>
<path d="M1020 2535 c-8 -9 -8 -15 -2 -15 12 0 26 19 19 26 -2 2 -10 -2 -17
-11z"/>
<path d="M1215 2539 c-10 -15 3 -25 16 -12 7 7 7 13 1 17 -6 3 -14 1 -17 -5z"/>
<path d="M1268 2538 c9 -9 15 -9 24 0 9 9 7 12 -12 12 -19 0 -21 -3 -12 -12z"/>
<path d="M1161 2531 c-10 -7 -11 -13 -2 -30 15 -28 18 -27 23 9 5 32 1 35 -21
21z"/>
<path d="M1417 2533 c-4 -3 -7 -11 -7 -17 0 -6 5 -5 12 2 6 6 9 14 7 17 -3 3
-9 2 -12 -2z"/>
<path d="M1890 2533 c0 -5 5 -15 10 -23 9 -13 11 -13 19 0 5 8 7 18 5 22 -6
10 -34 11 -34 1z"/>
<path d="M1330 2515 c0 -8 2 -15 4 -15 2 0 6 7 10 15 3 8 1 15 -4 15 -6 0 -10
-7 -10 -15z"/>
<path d="M1283 2513 c-31 -6 -29 -23 2 -23 16 0 25 6 25 15 0 8 -1 14 -2 14
-2 -1 -13 -4 -25 -6z"/>
<path d="M1840 2511 c0 -5 5 -13 10 -16 6 -3 10 -2 10 4 0 5 -4 13 -10 16 -5
3 -10 2 -10 -4z"/>
<path d="M1350 2498 c0 -7 4 -19 9 -26 7 -11 10 -10 15 3 3 9 4 21 0 26 -8 13
-24 11 -24 -3z"/>
<path d="M1100 2491 c0 -5 5 -13 10 -16 6 -3 10 -2 10 4 0 5 -4 13 -10 16 -5
3 -10 2 -10 -4z"/>
<path d="M1030 2481 c0 -6 5 -11 11 -11 5 0 8 -4 4 -9 -3 -5 0 -13 6 -16 7 -5
9 1 7 16 -3 22 -28 40 -28 20z"/>
<path d="M1137 2483 c-4 -3 -7 -11 -7 -17 0 -6 5 -5 12 2 6 6 9 14 7 17 -3 3
-9 2 -12 -2z"/>
<path d="M1225 2460 c16 -30 35 -33 35 -5 0 13 -29 35 -45 35 -3 0 2 -14 10
-30z"/>
<path d="M1916 2472 c7 -4 14 -16 17 -27 4 -15 5 -14 6 8 1 20 -4 27 -16 27
-12 0 -14 -3 -7 -8z"/>
<path d="M935 2440 c-8 -13 -1 -24 14 -19 6 3 7 10 2 18 -6 10 -10 10 -16 1z"/>
<path d="M1080 2435 c-19 -23 -8 -25 14 -4 11 11 15 19 9 19 -6 0 -16 -7 -23
-15z"/>
<path d="M1965 2440 c-7 -12 2 -30 15 -30 5 0 8 9 7 20 -1 21 -12 26 -22 10z"/>
<path d="M1040 2415 c-8 -9 -8 -15 -2 -15 12 0 26 19 19 26 -2 2 -10 -2 -17
-11z"/>
<path d="M965 2390 c3 -5 8 -10 11 -10 2 0 4 5 4 10 0 6 -5 10 -11 10 -5 0 -7
-4 -4 -10z"/>
<path d="M1080 2392 c0 -12 19 -26 26 -19 2 2 -2 10 -11 17 -9 8 -15 8 -15 2z"/>
<path d="M1127 2373 c-4 -3 -7 -11 -7 -17 0 -6 5 -5 12 2 6 6 9 14 7 17 -3 3
-9 2 -12 -2z"/>
<path d="M1060 2360 c0 -5 5 -10 10 -10 6 0 10 5 10 10 0 6 -4 10 -10 10 -5 0
-10 -4 -10 -10z"/>
<path d="M850 2339 c0 -5 5 -7 10 -4 6 3 10 8 10 11 0 2 -4 4 -10 4 -5 0 -10
-5 -10 -11z"/>
<path d="M802 2333 c-18 -7 -4 -23 19 -23 12 0 19 5 17 12 -5 14 -18 18 -36
11z"/>
<path d="M900 2314 c0 -8 5 -12 10 -9 6 4 8 11 5 16 -9 14 -15 11 -15 -7z"/>
<path d="M1000 2315 c0 -8 5 -15 10 -15 6 0 10 7 10 15 0 8 -4 15 -10 15 -5 0
-10 -7 -10 -15z"/>
<path d="M953 2308 c-24 -30 -22 -63 3 -81 14 -11 28 -16 32 -12 4 3 -4 14
-16 24 -20 15 -22 20 -12 45 12 32 8 43 -7 24z"/>
<path d="M746 2295 c4 -8 8 -15 10 -15 2 0 4 7 4 15 0 8 -4 15 -10 15 -5 0 -7
-7 -4 -15z"/>
<path d="M880 2280 c0 -5 5 -10 10 -10 6 0 10 5 10 10 0 6 -4 10 -10 10 -5 0
-10 -4 -10 -10z"/>
<path d="M824 2265 c-3 -8 -3 -18 0 -23 8 -13 -32 -62 -50 -62 -20 0 -17 -13
5 -27 15 -10 22 -9 31 2 7 8 7 15 1 19 -5 4 1 18 15 33 19 21 27 24 33 14 6
-9 11 -10 15 -2 4 6 3 11 -3 11 -6 0 -13 11 -17 25 -7 28 -22 33 -30 10z"/>
<path d="M980 2270 c0 -5 9 -10 20 -10 11 0 20 5 20 10 0 6 -9 10 -20 10 -11
0 -20 -4 -20 -10z"/>
<path d="M1025 2240 c3 -5 11 -10 16 -10 6 0 7 5 4 10 -3 6 -11 10 -16 10 -6
0 -7 -4 -4 -10z"/>
<path d="M710 2210 c0 -5 4 -10 9 -10 6 0 13 5 16 10 3 6 -1 10 -9 10 -9 0
-16 -4 -16 -10z"/>
<path d="M1007 2213 c-10 -9 -9 -23 2 -23 5 0 11 7 15 15 5 15 -5 20 -17 8z"/>
<path d="M840 2191 c0 -6 5 -13 11 -17 8 -5 6 -10 -5 -16 -9 -5 -16 -16 -16
-24 0 -12 4 -12 25 3 28 21 30 29 11 49 -17 16 -26 18 -26 5z"/>
<path d="M910 2189 c0 -5 5 -7 10 -4 6 3 10 8 10 11 0 2 -4 4 -10 4 -5 0 -10
-5 -10 -11z"/>
<path d="M950 2175 c0 -2 9 -9 20 -15 16 -9 20 -8 20 5 0 8 -9 15 -20 15 -11
0 -20 -2 -20 -5z"/>
<path d="M903 2155 c2 -11 8 -29 13 -39 6 -16 4 -18 -9 -13 -9 3 -17 2 -17 -3
0 -6 9 -10 19 -10 27 0 33 -13 17 -36 -11 -15 -17 -16 -29 -6 -9 8 -18 9 -21
3 -4 -5 -2 -12 4 -16 5 -3 10 -3 10 1 0 3 7 1 15 -6 22 -18 19 -43 -4 -35 -11
3 -22 2 -25 -3 -10 -17 32 -20 71 -7 29 10 34 15 21 20 -12 5 -16 16 -14 41 1
19 -1 37 -6 40 -15 10 -8 23 15 27 20 3 20 4 -8 16 -16 6 -36 20 -44 29 -12
16 -13 15 -8 -3z"/>
<path d="M700 2150 c0 -5 5 -10 11 -10 5 0 7 5 4 10 -3 6 -8 10 -11 10 -2 0
-4 -4 -4 -10z"/>
<path d="M755 2119 c-11 -17 1 -21 15 -4 8 9 8 15 2 15 -6 0 -14 -5 -17 -11z"/>
<path d="M785 2110 c-8 -13 4 -32 16 -25 12 8 12 35 0 35 -6 0 -13 -4 -16 -10z"/>
<path d="M846 2105 c-19 -14 -16 -45 3 -45 10 0 27 47 20 55 -2 2 -12 -3 -23
-10z"/>
<path d="M995 2100 c-3 -5 -1 -10 4 -10 6 0 11 5 11 10 0 6 -2 10 -4 10 -3 0
-8 -4 -11 -10z"/>
<path d="M720 2083 c0 -5 5 -15 10 -23 8 -12 10 -11 10 8 0 12 -4 22 -10 22
-5 0 -10 -3 -10 -7z"/>
<path d="M976 2064 c-11 -8 -16 -14 -10 -14 13 0 39 18 34 24 -3 2 -14 -2 -24
-10z"/>
<path d="M808 2065 c-4 -4 -2 -18 5 -32 9 -21 8 -27 -6 -38 -17 -12 -24 -31
-8 -21 5 3 11 -3 14 -14 8 -33 27 -24 21 10 -6 26 -4 30 15 30 11 0 21 5 21
11 0 6 -7 9 -15 5 -10 -4 -19 4 -28 25 -6 17 -15 28 -19 24z"/>
<path d="M765 2050 c3 -5 10 -10 16 -10 5 0 9 5 9 10 0 6 -7 10 -16 10 -8 0
-12 -4 -9 -10z"/>
<path d="M720 2011 c0 -6 9 -9 20 -8 11 1 20 5 20 9 0 4 -9 8 -20 8 -11 0 -20
-4 -20 -9z"/>
<path d="M765 1990 c-3 -5 -1 -10 4 -10 6 0 11 5 11 10 0 6 -2 10 -4 10 -3 0
-8 -4 -11 -10z"/>
<path d="M940 1970 c0 -5 5 -10 11 -10 5 0 7 5 4 10 -3 6 -8 10 -11 10 -2 0
-4 -4 -4 -10z"/>
<path d="M793 1943 c-21 -7 -15 -33 7 -33 11 0 20 6 20 14 0 18 -11 25 -27 19z"/>
<path d="M1005 1930 c3 -5 11 -10 16 -10 6 0 7 5 4 10 -3 6 -11 10 -16 10 -6
0 -7 -4 -4 -10z"/>
<path d="M736 1914 c-8 -20 -8 -19 27 -28 31 -7 38 9 6 17 -12 3 -18 10 -14
16 3 6 2 11 -3 11 -6 0 -13 -7 -16 -16z"/>
<path d="M943 1923 c-7 -2 -13 -11 -13 -19 0 -17 26 -8 34 12 6 14 0 16 -21 7z"/>
<path d="M670 1892 c0 -12 19 -26 26 -19 2 2 -2 10 -11 17 -9 8 -15 8 -15 2z"/>
<path d="M846 1884 c-9 -23 -2 -28 13 -10 7 8 8 17 3 20 -6 3 -13 -1 -16 -10z"/>
<path d="M755 1840 c-8 -13 3 -30 20 -30 7 0 16 -7 19 -16 3 -8 11 -12 17 -8
9 5 8 10 -3 18 -8 6 -17 19 -21 29 -7 19 -22 22 -32 7z"/>
<path d="M820 1840 c0 -5 5 -10 10 -10 6 0 10 5 10 10 0 6 -4 10 -10 10 -5 0
-10 -4 -10 -10z"/>
<path d="M917 1836 c-4 -10 0 -12 14 -9 22 6 26 23 5 23 -8 0 -16 -6 -19 -14z"/>
<path d="M850 1803 c0 -22 2 -25 10 -13 13 20 13 40 0 40 -5 0 -10 -12 -10
-27z"/>
<path d="M1015 1810 c3 -5 8 -10 11 -10 2 0 4 5 4 10 0 6 -5 10 -11 10 -5 0
-7 -4 -4 -10z"/>
<path d="M902 1780 c-14 -23 -10 -25 20 -9 15 8 22 8 28 0 5 -9 10 -8 20 4 10
13 9 15 -8 15 -11 0 -26 2 -34 5 -7 3 -19 -4 -26 -15z"/>
<path d="M800 1751 c0 -5 7 -12 16 -15 14 -5 15 -4 4 9 -14 17 -20 19 -20 6z"/>
<path d="M870 1690 c0 -5 5 -10 10 -10 6 0 10 5 10 10 0 6 -4 10 -10 10 -5 0
-10 -4 -10 -10z"/>
<path d="M928 1683 c7 -3 16 -2 19 1 4 3 -2 6 -13 5 -11 0 -14 -3 -6 -6z"/>
<path d="M920 1645 c-14 -16 -10 -18 14 -9 9 3 16 10 16 15 0 14 -16 11 -30
-6z"/>
<path d="M980 1651 c0 -6 5 -13 10 -16 6 -3 10 1 10 9 0 9 -4 16 -10 16 -5 0
-10 -4 -10 -9z"/>
<path d="M1100 1630 c0 -5 4 -10 9 -10 6 0 13 5 16 10 3 6 -1 10 -9 10 -9 0
-16 -4 -16 -10z"/>
<path d="M1740 1625 c-8 -9 -8 -15 -2 -15 12 0 26 19 19 26 -2 2 -10 -2 -17
-11z"/>
<path d="M1907 1626 c-6 -16 2 -28 14 -20 12 7 11 34 0 34 -5 0 -11 -6 -14
-14z"/>
<path d="M845 1610 c-3 -5 -1 -10 4 -10 6 0 11 5 11 10 0 6 -2 10 -4 10 -3 0
-8 -4 -11 -10z"/>
<path d="M1865 1600 c10 -11 23 -20 28 -20 6 0 2 9 -8 20 -10 11 -23 20 -28
20 -6 0 -2 -9 8 -20z"/>
<path d="M1085 1590 c3 -5 8 -10 11 -10 2 0 4 5 4 10 0 6 -5 10 -11 10 -5 0
-7 -4 -4 -10z"/>
<path d="M1810 1584 c0 -8 5 -12 10 -9 6 3 10 10 10 16 0 5 -4 9 -10 9 -5 0
-10 -7 -10 -16z"/>
<path d="M1910 1571 c0 -5 11 -11 25 -13 20 -4 23 -3 14 8 -13 16 -39 19 -39
5z"/>
<path d="M1855 1560 c-3 -5 -1 -10 4 -10 6 0 11 5 11 10 0 6 -2 10 -4 10 -3 0
-8 -4 -11 -10z"/>
<path d="M1001 1544 c0 -11 3 -14 6 -6 3 7 2 16 -1 19 -3 4 -6 -2 -5 -13z"/>
<path d="M1640 1550 c0 -5 5 -10 10 -10 6 0 10 5 10 10 0 6 -4 10 -10 10 -5 0
-10 -4 -10 -10z"/>
<path d="M1880 1542 c0 -14 23 -32 42 -32 17 0 17 1 -2 20 -20 20 -40 26 -40
12z"/>
<path d="M1680 1500 c0 -16 5 -30 10 -30 6 0 10 14 10 30 0 17 -4 30 -10 30
-5 0 -10 -13 -10 -30z"/>
<path d="M1830 1500 c0 -5 5 -10 10 -10 6 0 10 5 10 10 0 6 -4 10 -10 10 -5 0
-10 -4 -10 -10z"/>
<path d="M1010 1480 c0 -5 5 -10 11 -10 5 0 7 5 4 10 -3 6 -8 10 -11 10 -2 0
-4 -4 -4 -10z"/>
<path d="M1770 1480 c0 -5 5 -10 10 -10 6 0 10 5 10 10 0 6 -4 10 -10 10 -5 0
-10 -4 -10 -10z"/>
<path d="M1875 1479 c-11 -17 1 -21 15 -4 8 9 8 15 2 15 -6 0 -14 -5 -17 -11z"/>
<path d="M1715 1470 c-3 -5 -1 -10 4 -10 6 0 11 5 11 10 0 6 -2 10 -4 10 -3 0
-8 -4 -11 -10z"/>
<path d="M1202 1359 c2 -7 10 -15 17 -17 8 -3 12 1 9 9 -2 7 -10 15 -17 17 -8
3 -12 -1 -9 -9z"/>
<path d="M2400 2311 c0 -6 5 -13 10 -16 6 -3 10 1 10 9 0 9 -4 16 -10 16 -5 0
-10 -4 -10 -9z"/>
<path d="M2405 2260 c3 -5 8 -10 11 -10 2 0 4 5 4 10 0 6 -5 10 -11 10 -5 0
-7 -4 -4 -10z"/>
<path d="M2366 2146 c3 -9 11 -16 16 -16 13 0 5 23 -10 28 -7 2 -10 -2 -6 -12z"/>
<path d="M2410 2119 c0 -5 5 -7 10 -4 6 3 10 8 10 11 0 2 -4 4 -10 4 -5 0 -10
-5 -10 -11z"/>
<path d="M2455 2100 c3 -5 8 -10 11 -10 2 0 4 5 4 10 0 6 -5 10 -11 10 -5 0
-7 -4 -4 -10z"/>
<path d="M2412 2073 c2 -10 11 -19 21 -21 23 -5 21 10 -4 26 -18 12 -20 11
-17 -5z"/>
<path d="M2475 2040 c-7 -12 2 -30 16 -30 5 0 9 9 9 20 0 21 -15 27 -25 10z"/>
<path d="M2427 2014 c-4 -4 -7 -19 -6 -33 l0 -26 10 24 c10 26 8 47 -4 35z"/>
<path d="M2371 1992 c-14 -27 -12 -35 8 -23 7 5 11 17 9 27 -4 17 -5 17 -17
-4z"/>
<path d="M2475 1983 c-4 -13 -14 -23 -22 -23 -10 0 -12 -8 -7 -34 5 -28 2 -38
-15 -52 -15 -13 -18 -21 -9 -31 17 -21 25 -15 32 25 3 21 13 53 22 70 8 18 13
40 11 50 -4 14 -6 14 -12 -5z"/>
<path d="M2510 1960 c0 -5 5 -10 10 -10 6 0 10 5 10 10 0 6 -4 10 -10 10 -5 0
-10 -4 -10 -10z"/>
<path d="M2550 1930 c0 -11 5 -20 10 -20 6 0 10 9 10 20 0 11 -4 20 -10 20 -5
0 -10 -9 -10 -20z"/>
<path d="M2500 1920 c0 -19 3 -21 12 -12 9 9 9 15 0 24 -9 9 -12 7 -12 -12z"/>
<path d="M2340 1890 c0 -5 5 -10 10 -10 6 0 10 5 10 10 0 6 -4 10 -10 10 -5 0
-10 -4 -10 -10z"/>
<path d="M2377 1869 c-3 -13 -1 -19 6 -16 15 5 22 37 9 37 -5 0 -12 -9 -15
-21z"/>
<path d="M2547 1878 c-3 -9 6 -13 26 -14 28 -1 29 0 12 12 -23 17 -32 18 -38
2z"/>
<path d="M2490 1864 c0 -8 5 -12 10 -9 6 3 10 10 10 16 0 5 -4 9 -10 9 -5 0
-10 -7 -10 -16z"/>
<path d="M2330 1845 c0 -8 5 -15 10 -15 6 0 10 7 10 15 0 8 -4 15 -10 15 -5 0
-10 -7 -10 -15z"/>
<path d="M2520 1840 c0 -5 5 -10 10 -10 6 0 10 5 10 10 0 6 -4 10 -10 10 -5 0
-10 -4 -10 -10z"/>
<path d="M2467 1834 c-8 -8 1 -24 14 -24 5 0 9 7 9 15 0 15 -12 20 -23 9z"/>
<path d="M2515 1810 c-3 -5 -1 -10 4 -10 6 0 11 5 11 10 0 6 -2 10 -4 10 -3 0
-8 -4 -11 -10z"/>
<path d="M2580 1810 c0 -5 7 -10 16 -10 8 0 12 5 9 10 -3 6 -10 10 -16 10 -5
0 -9 -4 -9 -10z"/>
<path d="M2413 1796 c3 -7 0 -19 -6 -25 -6 -6 -12 -30 -14 -53 -4 -34 -2 -41
8 -31 7 7 13 21 14 30 1 10 5 35 9 56 5 25 3 37 -5 37 -6 0 -9 -6 -6 -14z"/>
<path d="M2355 1780 c3 -5 11 -10 16 -10 6 0 7 5 4 10 -3 6 -11 10 -16 10 -6
0 -7 -4 -4 -10z"/>
<path d="M2465 1775 c-5 -11 -15 -25 -23 -31 -13 -9 -11 -12 7 -17 25 -6 35 9
29 45 -4 22 -5 22 -13 3z"/>
<path d="M2520 1780 c0 -5 7 -10 16 -10 8 0 12 5 9 10 -3 6 -10 10 -16 10 -5
0 -9 -4 -9 -10z"/>
<path d="M2591 1744 c0 -11 3 -14 6 -6 3 7 2 16 -1 19 -3 4 -6 -2 -5 -13z"/>
<path d="M2344 1702 c-10 -39 -9 -43 12 -57 13 -8 26 -15 29 -15 10 0 5 28 -6
32 -6 2 -14 21 -18 42 l-6 39 -11 -41z"/>
<path d="M2490 1700 c0 -5 5 -10 10 -10 6 0 10 5 10 10 0 6 -4 10 -10 10 -5 0
-10 -4 -10 -10z"/>
<path d="M2530 1675 c7 -8 16 -12 21 -9 13 8 1 24 -18 24 -13 0 -13 -3 -3 -15z"/>
<path d="M2440 1676 c0 -5 7 -14 17 -21 20 -15 8 -39 -17 -32 -11 3 -21 -1
-24 -9 -4 -10 2 -14 19 -14 13 0 27 -4 30 -10 3 -5 13 -10 21 -10 9 0 12 5 8
12 -4 7 -7 28 -6 46 2 26 -1 33 -11 29 -8 -3 -20 0 -26 6 -6 6 -11 7 -11 3z"/>
<path d="M2575 1640 c3 -5 8 -10 11 -10 2 0 4 5 4 10 0 6 -5 10 -11 10 -5 0
-7 -4 -4 -10z"/>
<path d="M2525 1620 c-4 -6 2 -13 12 -17 10 -3 21 -8 26 -10 4 -2 7 0 7 4 0
14 -38 34 -45 23z"/>
<path d="M2605 1620 c3 -5 14 -10 23 -10 15 0 15 2 2 10 -20 13 -33 13 -25 0z"/>
<path d="M2356 1584 c-4 -15 -2 -32 3 -37 8 -8 11 -7 11 4 0 7 3 24 6 37 4 12
2 22 -4 22 -5 0 -13 -12 -16 -26z"/>
<path d="M2410 1568 c0 -6 -7 -19 -16 -29 -16 -18 -11 -43 8 -37 10 4 22 78
13 78 -3 0 -5 -5 -5 -12z"/>
<path d="M2430 1551 c0 -17 18 -21 24 -6 3 9 0 15 -9 15 -8 0 -15 -4 -15 -9z"/>
<path d="M2565 1530 c-3 -5 -2 -10 4 -10 5 0 13 5 16 10 3 6 2 10 -4 10 -5 0
-13 -4 -16 -10z"/>
<path d="M2486 1514 c-3 -9 -6 -23 -6 -32 1 -12 5 -10 15 8 8 14 14 28 15 33
0 13 -18 7 -24 -9z"/>
<path d="M2680 1520 c0 -5 5 -10 10 -10 6 0 10 5 10 10 0 6 -4 10 -10 10 -5 0
-10 -4 -10 -10z"/>
<path d="M2430 1501 c0 -12 5 -21 10 -21 6 0 10 6 10 14 0 8 -4 18 -10 21 -5
3 -10 -3 -10 -14z"/>
<path d="M2336 1484 c-8 -20 -8 -24 2 -24 4 0 8 9 9 20 2 24 -3 26 -11 4z"/>
<path d="M2680 1465 c0 -8 5 -15 10 -15 6 0 10 7 10 15 0 8 -4 15 -10 15 -5 0
-10 -7 -10 -15z"/>
<path d="M2375 1430 c-3 -5 -2 -10 4 -10 5 0 13 5 16 10 3 6 2 10 -4 10 -5 0
-13 -4 -16 -10z"/>
<path d="M2463 1413 c4 -3 2 -12 -4 -19 -6 -7 -7 -19 -3 -25 5 -9 10 -7 15 7
11 29 10 44 -3 44 -6 0 -8 -3 -5 -7z"/>
<path d="M2591 1344 c0 -11 3 -14 6 -6 3 7 2 16 -1 19 -3 4 -6 -2 -5 -13z"/>
</g>
</svg>
